<svg xmlns="http://www.w3.org/2000/svg" width="1600" height="520" viewBox="0 0 1600 520" role="img" aria-label="Support center with headset and help cards"><defs><linearGradient id="bg" x1="0" y1="0" x2="1" y2="1"><stop stop-color="#faf7f8"/><stop offset=".58" stop-color="#e9dee1"/><stop offset="1" stop-color="#ccb8be"/></linearGradient><linearGradient id="b" x1="0" y1="0" x2="1" y2="1"><stop stop-color="#9f173f"/><stop offset="1" stop-color="#5a061e"/></linearGradient><filter id="s" x="-30%" y="-30%" width="160%" height="180%"><feDropShadow dx="0" dy="17" stdDeviation="16" flood-color="#3f0a1b" flood-opacity=".18"/></filter></defs><rect width="1600" height="520" fill="url(#bg)"/><g filter="url(#s)" transform="translate(1050 95)"><circle cx="150" cy="155" r="126" fill="#fff" fill-opacity=".9"/><path d="M70 160c0-106 160-106 160 0" fill="none" stroke="url(#b)" stroke-width="28" stroke-linecap="round"/><rect x="48" y="155" width="45" height="85" rx="20" fill="url(#b)"/><rect x="207" y="155" width="45" height="85" rx="20" fill="url(#b)"/><path d="M230 225c0 54-39 74-83 74" fill="none" stroke="#8a1237" stroke-width="12" stroke-linecap="round"/><circle cx="137" cy="299" r="13" fill="#8a1237"/></g><g filter="url(#s)"><rect x="810" y="280" width="190" height="105" rx="20" fill="#fff"/><text x="905" y="350" text-anchor="middle" fill="#8a1237" font-family="Georgia" font-size="58" font-weight="700">?</text><rect x="1330" y="270" width="160" height="94" rx="18" fill="#fff"/><path d="M1360 302h99M1360 329h71" stroke="#8a1237" stroke-width="9" stroke-linecap="round"/></g></svg>