<svg xmlns="http://www.w3.org/2000/svg" width="1600" height="520" viewBox="0 0 1600 520" role="img" aria-label="Modern administrative office with documents"><defs><linearGradient id="bg" x1="0" y1="0" x2="1" y2="1"><stop stop-color="#faf7f8"/><stop offset=".58" stop-color="#e8dde0"/><stop offset="1" stop-color="#cdb9bf"/></linearGradient><linearGradient id="desk" x1="0" x2="1"><stop stop-color="#d4b8ae"/><stop offset=".5" stop-color="#aa867d"/><stop offset="1" stop-color="#795a53"/></linearGradient><linearGradient id="burg" x1="0" y1="0" x2="1" y2="1"><stop stop-color="#9c173e"/><stop offset="1" stop-color="#5b061f"/></linearGradient><filter id="s" x="-30%" y="-30%" width="160%" height="180%"><feDropShadow dx="0" dy="16" stdDeviation="15" flood-color="#3f0a1b" flood-opacity=".18"/></filter></defs><rect width="1600" height="520" fill="url(#bg)"/><rect y="365" width="1600" height="155" fill="url(#desk)"/><g opacity=".5"><rect x="1005" y="36" width="385" height="244" rx="18" fill="#fff"/><rect x="1050" y="76" width="292" height="20" rx="10" fill="#b798a0"/><rect x="1050" y="116" width="210" height="11" rx="5" fill="#d2c0c5"/><rect x="1050" y="145" width="248" height="11" rx="5" fill="#d2c0c5"/><rect x="1050" y="174" width="184" height="11" rx="5" fill="#d2c0c5"/></g><g filter="url(#s)"><rect x="840" y="280" width="300" height="105" rx="14" fill="#f8f5ef" transform="rotate(-4 840 280)"/><path d="M885 307h192M885 335h152M885 361h171" stroke="#bba8a5" stroke-width="7" stroke-linecap="round" transform="rotate(-4 840 280)"/><circle cx="1070" cy="350" r="20" fill="#8b1237"/></g><g filter="url(#s)"><rect x="1165" y="250" width="230" height="54" rx="8" fill="#6e0b2a"/><rect x="1180" y="304" width="215" height="50" rx="8" fill="#8b1237"/><rect x="1200" y="354" width="195" height="47" rx="8" fill="#b17d8a"/></g><g transform="translate(1420 300)" filter="url(#s)"><rect x="0" y="0" width="14" height="118" rx="7" fill="#3e3838"/><path d="M7 0c0-82 80-92 93-22" fill="none" stroke="#3e3838" stroke-width="14" stroke-linecap="round"/><path d="M63-47h78l-24 64H76Z" fill="url(#burg)"/></g><g filter="url(#s)"><rect x="700" y="332" width="115" height="70" rx="12" fill="#fff"/><path d="M727 356h60M727 376h43" stroke="#8b1237" stroke-width="7" stroke-linecap="round"/></g></svg>