<svg xmlns="http://www.w3.org/2000/svg" width="1600" height="520" viewBox="0 0 1600 520" role="img" aria-label="Cybersecurity shield and account lock"><defs><linearGradient id="bg" x1="0" y1="0" x2="1" y2="1"><stop stop-color="#faf7f8"/><stop offset=".58" stop-color="#e7dce0"/><stop offset="1" stop-color="#c8b2b9"/></linearGradient><linearGradient id="b" x1="0" y1="0" x2="1" y2="1"><stop stop-color="#a31b45"/><stop offset="1" stop-color="#5a061e"/></linearGradient><filter id="s" x="-30%" y="-30%" width="160%" height="180%"><feDropShadow dx="0" dy="18" stdDeviation="17" flood-color="#3f0a1b" flood-opacity=".2"/></filter></defs><rect width="1600" height="520" fill="url(#bg)"/><g opacity=".25" stroke="#8a1237" stroke-width="3"><path d="M820 130l150-70 160 88 165-66 150 74"/><path d="M840 355l122-80 179 65 162-85 139 90"/></g><g filter="url(#s)" transform="translate(1040 72)"><path d="M160 0 292 53v111c0 102-55 174-132 211C83 338 28 266 28 164V53Z" fill="url(#b)"/><path d="M160 48 248 84v78c0 70-34 119-88 151-54-32-88-81-88-151V84Z" fill="#fff" fill-opacity=".12"/><rect x="113" y="151" width="94" height="91" rx="18" fill="#fff"/><path d="M132 151v-22c0-39 56-39 56 0v22" fill="none" stroke="#fff" stroke-width="17" stroke-linecap="round"/><circle cx="160" cy="190" r="11" fill="#8a1237"/><path d="M160 200v18" stroke="#8a1237" stroke-width="8" stroke-linecap="round"/></g><g filter="url(#s)"><rect x="820" y="285" width="190" height="92" rx="18" fill="#fff"/><circle cx="860" cy="331" r="17" fill="#f0d6de"/><rect x="895" y="313" width="82" height="10" rx="5" fill="#8a1237"/><rect x="895" y="338" width="59" height="8" rx="4" fill="#bca5ac"/></g></svg>